<?xml version="1.0" encoding="UTF-8" standalone="no"?>
<!-- Created with Inkscape (http://www.inkscape.org/) -->

<svg
   version="1.1"
   id="svg1"
   width="13.153574"
   height="26.15"
   viewBox="0 0 13.153574 26.15"
   xmlns:xlink="http://www.w3.org/1999/xlink"
   xmlns="http://www.w3.org/2000/svg"
   xmlns:svg="http://www.w3.org/2000/svg">
  <defs
     id="defs1" />
  <g
     id="g1"
     style="display:inline"
     transform="translate(-1.921426,0.075)">
    <image
       width="15.221183"
       height="26.535595"
       preserveAspectRatio="none"
       xlink:href="../../../../Downloads/300px-Hubben-planritning-by-g%C3%B6ken-v1.png"
       id="image1"
       x="0"
       y="0"
       style="display:none;stroke-width:0.25;stroke-dasharray:none" />
    <g
       id="g25"
       style="display:inline">
      <path
         id="studierummet"
         style="display:inline;fill:#4a4a4a"
         d="M 9.500426,16 H 15 v 6 H 9.500426 Z" />
      <path
         d="M 2,0 V 4.9960937 H 7 7.00391 V 5 10.003906 H 7 V 16 21.998047 L 4,22 v 4 H 9.500426 V 22 16 H 15 V 5 H 9.500426 V 3 H 7 V 0 Z M 7,10.003906 V 5 H 2 V 4.99609 H 1.99609 v 5.007812 z"
         style="display:inline;fill:#1098bc;fill-opacity:1"
         id="storhubben" />
      <path
         d="M 10,0 7,0.01757813 V 3 H 9.500426 V 5 H 15 V 0 Z"
         style="display:inline;fill:#e28413;fill-opacity:1;paint-order:normal"
         id="grupprummet" />
      <path
         id="ctc"
         style="display:inline;fill:#ac2e4d;fill-opacity:1;stroke-width:0.999999"
         d="M 9.500426,22 H 15 v 4 H 9.500426 Z" />
    </g>
    <g
       id="g26"
       style="stroke-width:0.15;stroke-dasharray:none;stroke:#000000;stroke-opacity:1">
      <rect
         style="fill:#000000;fill-opacity:0;stroke:#000000;stroke-width:0.15;stroke-linejoin:miter;stroke-dasharray:none;stroke-opacity:1;paint-order:normal"
         id="rect4"
         width="5"
         height="5"
         x="2"
         y="0" />
      <rect
         style="fill:#000000;fill-opacity:0;stroke:#000000;stroke-width:0.15;stroke-linejoin:miter;stroke-dasharray:none;stroke-opacity:1;paint-order:normal"
         id="rect5"
         width="2.5004261"
         height="2"
         x="7"
         y="3" />
      <path
         d="M 10,0 7,0.01757813 V 3 H 9.500426 V 5 H 15 V 0 Z"
         style="fill:#000000;fill-opacity:0;stroke:#000000;stroke-width:0.15;stroke-linejoin:miter;stroke-dasharray:none;stroke-opacity:1;paint-order:normal"
         id="path17" />
      <rect
         style="fill:#000000;fill-opacity:0;stroke:#000000;stroke-width:0.15;stroke-linejoin:miter;stroke-dasharray:none;stroke-opacity:1;paint-order:normal"
         id="rect8"
         width="5.4995742"
         height="6"
         x="9.5004263"
         y="16" />
      <rect
         style="fill:#000000;fill-opacity:0;stroke:#000000;stroke-width:0.15;stroke-linejoin:miter;stroke-dasharray:none;stroke-opacity:1;paint-order:normal"
         id="rect11"
         width="5.4995737"
         height="4"
         x="9.5004263"
         y="22" />
      <path
         d="m 7,5 v 11 5.998047 L 4,22 l -10e-8,4 5.5004261,0 V 22 16 H 15 V 5 Z"
         style="display:inline;fill:#000000;fill-opacity:0;stroke:#000000;stroke-width:0.15;stroke-dasharray:none;stroke-opacity:1"
         id="path19" />
      <path
         d="m 6.0004261,26 -1e-7,-1 H 7 l -1e-7,-1.5 H 4"
         style="display:inline;fill:#000000;fill-opacity:0;stroke:#000000;stroke-width:0.15;stroke-dasharray:none;stroke-opacity:1"
         id="path23" />
      <rect
         style="fill:#000000;fill-opacity:0;stroke:#000000;stroke-width:0.15;stroke-linejoin:miter;stroke-dasharray:none;stroke-opacity:1;paint-order:normal"
         id="rect17"
         width="5.0071483"
         height="5.0071478"
         x="1.996426"
         y="4.9964261" />
      <path
         style="display:inline;fill:#4a4a4a;fill-opacity:1;stroke-width:0.15;paint-order:normal"
         d="M 15,7.4999999 9.421426,7.51"
         id="path26" />
    </g>
  </g>
</svg>
